<svg xmlns="http://www.w3.org/2000/svg" xmlns:xlink="http://www.w3.org/1999/xlink" width="14" height="14" viewBox="0 0 14 14"><defs><path id="a" d="M.015 0H9.88v10.69H.015z"/></defs><g fill="none" fill-rule="evenodd"><path fill="#000" d="m13.86 12.473-.95-.823a.528.528 0 0 0-.671 0 .374.374 0 0 0 0 .582l.139.12H3.269l.14-.12a.374.374 0 0 0 0-.582.528.528 0 0 0-.673 0l-.95.823a.392.392 0 0 0-.139.292c0 .103.049.213.14.291l.95.823a.526.526 0 0 0 .671 0 .374.374 0 0 0 0-.582l-.139-.12h9.109l-.14.12a.374.374 0 0 0 0 .582.53.53 0 0 0 .673 0l.95-.823a.39.39 0 0 0 .139-.291.389.389 0 0 0-.14-.292M1.768 9.797l-.121.137V1.596l.12.137a.38.38 0 0 0 .583 0 .513.513 0 0 0 0-.661L1.526.137a.378.378 0 0 0-.582 0l-.823.935a.513.513 0 0 0 0 .66c.16.183.421.183.582 0l.12-.136v8.338l-.12-.137a.378.378 0 0 0-.582 0 .513.513 0 0 0 0 .66l.823.935a.377.377 0 0 0 .582 0l.824-.934a.513.513 0 0 0 0-.661.378.378 0 0 0-.582 0"/><g transform="translate(4.118)"><mask id="b" fill="#fff"><use xlink:href="#a"/></mask><path fill="#000" d="M7.637 3.773H9.88V.472A.46.46 0 0 0 9.43 0H3.303v3.773h2.242a.46.46 0 0 1 .448.472c0 .26-.2.471-.448.471H3.303v1.415c0 .26-.2.472-.448.472a.46.46 0 0 1-.449-.472V0H.464a.46.46 0 0 0-.449.472v9.746c0 .26.201.472.449.472h1.942V8.332c0-.26.201-.472.449-.472a.46.46 0 0 1 .448.472v2.358h6.128a.46.46 0 0 0 .448-.472V4.716H7.637a.46.46 0 0 1-.448-.471c0-.261.2-.472.448-.472" mask="url(#b)"/></g></g></svg>