<svg xmlns="http://www.w3.org/2000/svg" xmlns:xlink="http://www.w3.org/1999/xlink" width="38" height="38" viewBox="0 0 38 38"><defs><path id="a" d="M.041 0H26.87v28.689H.04z"/></defs><g fill="none" fill-rule="evenodd"><path fill="#9B9B9B" d="m37.623 33.99-2.566-2.161c-.5-.422-1.313-.422-1.814 0-.501.422-.501 1.107 0 1.529l.376.317H9.015l.376-.317c.502-.422.502-1.107 0-1.53-.5-.421-1.313-.421-1.814 0L5.01 33.992c-.252.212-.377.5-.377.765 0 .27.132.56.377.765l2.566 2.162c.501.423 1.313.423 1.814 0 .502-.422.502-1.107 0-1.529l-.376-.317H33.62l-.376.317c-.501.422-.501 1.107 0 1.53.501.422 1.313.422 1.814 0l2.566-2.163c.252-.211.377-.5.377-.765 0-.277-.132-.559-.377-.765M4.642 26.776l-.317.375V4.36l.317.375c.422.499 1.107.499 1.529 0 .422-.5.422-1.308 0-1.807L4.008.374c-.422-.499-1.106-.499-1.529 0L.317 2.93c-.423.5-.423 1.308 0 1.807.422.499 1.106.499 1.529 0l.317-.375v22.79l-.317-.375c-.423-.499-1.107-.499-1.53 0-.422.5-.422 1.308 0 1.807l2.163 2.555c.423.499 1.107.499 1.53 0l2.162-2.555c.422-.499.422-1.308 0-1.807-.422-.499-1.107-.499-1.529 0"/><g transform="translate(11.122)"><mask id="b" fill="#fff"><use xlink:href="#a"/></mask><path fill="#9B9B9B" d="M20.772 10.125h6.097v-8.86c0-.699-.547-1.265-1.22-1.265H8.984v10.125h6.097c.673 0 1.22.567 1.22 1.266 0 .7-.547 1.266-1.22 1.266H8.984v3.797c0 .7-.547 1.266-1.22 1.266-.673 0-1.22-.567-1.22-1.266V0H1.262C.587 0 .04.566.04 1.266v26.157c0 .7.546 1.266 1.22 1.266h5.284V22.36c0-.699.546-1.265 1.22-1.265.672 0 1.219.566 1.219 1.265v6.329h16.665c.673 0 1.22-.567 1.22-1.266V12.657h-6.097c-.674 0-1.22-.567-1.22-1.266 0-.7.546-1.266 1.22-1.266" mask="url(#b)"/></g></g></svg>