<svg xmlns="http://www.w3.org/2000/svg" xmlns:xlink="http://www.w3.org/1999/xlink" width="14" height="14" viewBox="0 0 14 14">
    <defs>
        <path id="a" d="M0 .008h14V1.19H0z"/>
    </defs>
    <g fill="none" fill-rule="evenodd">
        <path fill="#000" d="M13.252 12.434l-.22-.52a3.881 3.881 0 0 1-1.67.86l.403.527a.866.866 0 0 0 1.487-.867M.968 11.914l-.22.52a.866.866 0 0 0 .799 1.206.873.873 0 0 0 .688-.34l.404-.525a3.88 3.88 0 0 1-1.671-.861M5.007 1.468h-.045A1.696 1.696 0 0 0 3.284 0h-.378c-.933 0-1.693.76-1.693 1.693V5.24h.822V1.693c0-.48.391-.87.871-.87h.378c.402 0 .742.273.841.645H4.06c-.654 0-1.186.532-1.186 1.186v.694c0 .22.173.399.39.41h2.519a.411.411 0 0 0 .411-.41v-.694c0-.654-.532-1.186-1.186-1.186M.462 8.468v.521a3.07 3.07 0 0 0 3.065 3.066h6.946a3.07 3.07 0 0 0 3.065-3.066v-.521H.462z"/>
        <g transform="translate(0 6.449)">
            <mask id="b" fill="#fff">
                <use xlink:href="#a"/>
            </mask>
            <path fill="#000" d="M13.409.008H.59a.592.592 0 0 0 0 1.183H13.41a.592.592 0 0 0 0-1.183" mask="url(#b)"/>
        </g>
    </g>
</svg>
