<svg xmlns="http://www.w3.org/2000/svg" xmlns:xlink="http://www.w3.org/1999/xlink" width="39" height="38" viewBox="0 0 39 38"><defs><path id="a" d="M0 .021h38.99v3.295H0z"/></defs><g fill="none" fill-rule="evenodd"><path fill="#9B9B9B" d="m36.908 34.628-.614-1.449a10.809 10.809 0 0 1-4.653 2.399l1.126 1.465a2.43 2.43 0 0 0 1.916.944 2.41 2.41 0 0 0 2.015-1.082 2.41 2.41 0 0 0 .21-2.277M2.696 33.18l-.614 1.448a2.41 2.41 0 0 0 .21 2.277 2.411 2.411 0 0 0 2.015 1.082 2.43 2.43 0 0 0 1.916-.944l1.126-1.465a10.807 10.807 0 0 1-4.653-2.399M13.944 4.088h-.125A4.722 4.722 0 0 0 9.146 0H8.094a4.722 4.722 0 0 0-4.716 4.716v9.878h2.29V4.716A2.429 2.429 0 0 1 8.094 2.29h1.052a2.43 2.43 0 0 1 2.343 1.798h-.185a3.308 3.308 0 0 0-3.303 3.304v1.931c0 .613.48 1.111 1.086 1.142.02.001.039.003.059.003h6.957c.632 0 1.145-.512 1.145-1.145V7.392a3.307 3.307 0 0 0-3.304-3.304M1.286 23.582v1.453c0 4.708 3.83 8.538 8.537 8.538h19.344c4.707 0 8.538-3.83 8.538-8.538v-1.453H1.285z"/><g transform="translate(0 17.96)"><mask id="b" fill="#fff"><use xlink:href="#a"/></mask><path fill="#9B9B9B" d="M37.343.021H1.647A1.65 1.65 0 0 0 0 1.67a1.65 1.65 0 0 0 1.647 1.647h35.696A1.65 1.65 0 0 0 38.99 1.67 1.65 1.65 0 0 0 37.343.02" mask="url(#b)"/></g></g></svg>