<svg xmlns="http://www.w3.org/2000/svg" width="14" height="9" viewBox="0 0 14 9">
    <g fill="#000" fill-rule="evenodd">
        <path d="M12.14 4.175h1.383V2.931a.47.47 0 0 0-.47-.47h-7.79a3.01 3.01 0 0 1 .283 1.714h6.594zM2.552 1.31a2.53 2.53 0 0 0-.154.005v2.859h2.604a2.458 2.458 0 0 0-.357-1.712A2.473 2.473 0 0 0 2.552 1.31"/>
        <path d="M.462 8.508h.936a.46.46 0 0 0 .462-.462V6.574h10.28v1.472a.46.46 0 0 0 .462.462h.936A.46.46 0 0 0 14 8.046v-2.87a.46.46 0 0 0-.462-.462H1.86V.462A.46.46 0 0 0 1.398 0H.462A.46.46 0 0 0 0 .462v7.584c0 .254.206.462.462.462"/>
    </g>
</svg>
