<svg xmlns="http://www.w3.org/2000/svg" width="63" height="38" viewBox="0 0 63 38">
    <g fill="#9B9B9B" fill-rule="evenodd">
        <path d="M54.224 18.65H60.4v-5.56a2.1 2.1 0 0 0-2.095-2.095H23.508c.11.226.213.453.316.687a13.445 13.445 0 0 1 1.058 5.25c0 .577-.034 1.154-.11 1.718h29.452zM11.4 5.855c-.234 0-.46.006-.687.02v12.768H22.34c.089-.564.13-1.134.13-1.718 0-2.185-.632-4.22-1.725-5.93a11.044 11.044 0 0 0-9.345-5.14"/>
        <path d="M2.061 38h4.185c1.141 0 2.062-.92 2.062-2.061v-6.577h45.916v6.577c0 1.14.92 2.061 2.061 2.061h4.185c1.14 0 2.062-.92 2.062-2.061V23.116c0-1.14-.921-2.061-2.062-2.061H8.308V2.06C8.308.921 7.387 0 6.246 0H2.061C.921 0 0 .92 0 2.061V35.94C0 37.072.92 38 2.061 38"/>
    </g>
</svg>
