<svg xmlns="http://www.w3.org/2000/svg" xmlns:xlink="http://www.w3.org/1999/xlink" width="24" height="16" viewBox="0 0 24 16"><defs><path id="a" d="M0 .026h23.953V16H0z"/><path id="c" d="M0 16h24V0H0z"/></defs><g fill="none" fill-rule="evenodd"><mask id="b" fill="#fff"><use xlink:href="#a"/></mask><path fill="#F5F5F5" d="M23.54 16H.413A.417.417 0 0 1 0 15.58V.447c0-.233.185-.42.413-.42H23.54c.228 0 .413.187.413.42V15.58c0 .232-.185.42-.413.42" mask="url(#b)"/><path fill="#FF4B55" d="M24 1H0V.342C0 .153.185 0 .414 0h23.172c.229 0 .414.153.414.342V1z"/><mask id="d" fill="#fff"><use xlink:href="#c"/></mask><path fill="#FF4B55" d="M0 6h24V5H0zm0-2h24V3H0zm24 5H.414C.185 9 0 8.847 0 8.658V8h24v1zM0 13h24v-1H0zm23.586 3H.414C.185 16 0 15.847 0 15.658V15h24v.658c0 .189-.185.342-.414.342M0 11h24v-1H0z" mask="url(#d)"/><path fill="#41479B" d="M10.593 0H.407C.182 0 0 .197 0 .44v8.12c0 .243.182.44.407.44h10.186c.225 0 .407-.197.407-.44V.44c0-.243-.182-.44-.407-.44" mask="url(#d)"/><path fill="#F5F5F5" d="m1.54 1.03.1.315.318.003c.04 0 .058.055.025.08l-.255.197.095.317c.013.04-.032.074-.065.05L1.5 1.798l-.258.192c-.033.025-.078-.008-.065-.05l.095-.316-.255-.197c-.033-.025-.016-.08.025-.08l.317-.003.1-.314a.042.042 0 0 1 .081 0" mask="url(#d)"/><path fill="#F5F5F5" d="m1.54 2.03.1.315.318.003c.04 0 .058.055.025.08l-.255.197.095.317c.013.04-.032.074-.065.05L1.5 2.798l-.258.192c-.033.025-.078-.008-.065-.05l.095-.316-.255-.197c-.033-.025-.016-.08.025-.08l.317-.003.1-.314a.042.042 0 0 1 .081 0m0 2 .1.315.318.003c.04 0 .058.055.025.08l-.255.197.095.317c.013.04-.032.074-.065.05L1.5 4.798l-.258.192c-.033.025-.078-.008-.065-.05l.095-.316-.255-.197c-.033-.025-.016-.08.025-.08l.317-.003.1-.314a.042.042 0 0 1 .081 0" mask="url(#d)"/><path fill="#F5F5F5" d="m1.54 5.03.1.315.318.003c.04 0 .058.055.025.08l-.255.197.095.317c.013.04-.032.074-.065.05L1.5 5.798l-.258.192c-.033.025-.078-.008-.065-.05l.095-.316-.255-.197c-.033-.025-.016-.08.025-.08l.317-.003.1-.314a.042.042 0 0 1 .081 0m0 2 .1.315.318.003c.04 0 .058.055.025.08l-.255.197.095.317c.013.04-.032.074-.065.05L1.5 7.798l-.258.192c-.033.025-.078-.008-.065-.05l.095-.316-.255-.197c-.033-.025-.016-.08.025-.08l.317-.003.1-.314a.042.042 0 0 1 .081 0m1-5 .1.315.318.003c.04 0 .058.055.025.08l-.255.197.095.317c.013.04-.032.074-.065.05L2.5 2.798l-.258.192c-.033.025-.078-.008-.065-.05l.095-.316-.255-.197c-.033-.025-.016-.08.025-.08l.317-.003.1-.314a.042.042 0 0 1 .081 0" mask="url(#d)"/><path fill="#F5F5F5" d="m2.54 3.03.1.315.318.003c.04 0 .058.055.025.08l-.255.197.095.317c.013.04-.032.074-.065.05L2.5 3.798l-.258.192c-.033.025-.078-.008-.065-.05l.095-.316-.255-.197c-.033-.025-.016-.08.025-.08l.317-.003.1-.314a.042.042 0 0 1 .081 0" mask="url(#d)"/><path fill="#F5F5F5" d="m2.54 4.03.1.315.318.003c.04 0 .058.055.025.08l-.255.197.095.317c.013.04-.032.074-.065.05L2.5 4.798l-.258.192c-.033.025-.078-.008-.065-.05l.095-.316-.255-.197c-.033-.025-.016-.08.025-.08l.317-.003.1-.314a.042.042 0 0 1 .081 0m0 2 .1.315.318.003c.04 0 .058.055.025.08l-.255.197.095.317c.013.04-.032.074-.065.05L2.5 6.798l-.258.192c-.033.025-.078-.008-.065-.05l.095-.316-.255-.197c-.033-.025-.016-.08.025-.08l.317-.003.1-.314a.042.042 0 0 1 .081 0m1-5 .1.315.318.003c.04 0 .058.055.025.08l-.255.197.095.317c.013.04-.032.074-.065.05L3.5 1.798l-.258.192c-.033.025-.078-.008-.065-.05l.095-.316-.255-.197c-.033-.025-.016-.08.025-.08l.317-.003.1-.314a.042.042 0 0 1 .081 0" mask="url(#d)"/><path fill="#F5F5F5" d="m3.54 2.03.1.315.318.003c.04 0 .058.055.025.08l-.255.197.095.317c.013.04-.032.074-.065.05L3.5 2.798l-.258.192c-.033.025-.078-.008-.065-.05l.095-.316-.255-.197c-.033-.025-.016-.08.025-.08l.317-.003.1-.314a.042.042 0 0 1 .081 0m0 2 .1.315.318.003c.04 0 .058.055.025.08l-.255.197.095.317c.013.04-.032.074-.065.05L3.5 4.798l-.258.192c-.033.025-.078-.008-.065-.05l.095-.316-.255-.197c-.033-.025-.016-.08.025-.08l.317-.003.1-.314a.042.042 0 0 1 .081 0" mask="url(#d)"/><path fill="#F5F5F5" d="m3.54 5.03.1.315.318.003c.04 0 .058.055.025.08l-.255.197.095.317c.013.04-.032.074-.065.05L3.5 5.798l-.258.192c-.033.025-.078-.008-.065-.05l.095-.316-.255-.197c-.033-.025-.016-.08.025-.08l.317-.003.1-.314a.042.042 0 0 1 .081 0m0 2 .1.315.318.003c.04 0 .058.055.025.08l-.255.197.095.317c.013.04-.032.074-.065.05L3.5 7.798l-.258.192c-.033.025-.078-.008-.065-.05l.095-.316-.255-.197c-.033-.025-.016-.08.025-.08l.317-.003.1-.314a.042.042 0 0 1 .081 0m1-5 .1.315.318.003c.04 0 .058.055.025.08l-.255.197.095.317c.013.04-.032.074-.065.05L4.5 2.798l-.258.192c-.033.025-.078-.008-.065-.05l.095-.316-.255-.197c-.033-.025-.016-.08.025-.08l.317-.003.1-.314a.042.042 0 0 1 .081 0" mask="url(#d)"/><path fill="#F5F5F5" d="m4.54 3.03.1.315.318.003c.04 0 .058.055.025.08l-.255.197.095.317c.013.04-.032.074-.065.05L4.5 3.798l-.258.192c-.033.025-.078-.008-.065-.05l.095-.316-.255-.197c-.033-.025-.016-.08.025-.08l.317-.003.1-.314a.042.042 0 0 1 .081 0" mask="url(#d)"/><path fill="#F5F5F5" d="m4.54 4.03.1.315.318.003c.04 0 .058.055.025.08l-.255.197.095.317c.013.04-.032.074-.065.05L4.5 4.798l-.258.192c-.033.025-.078-.008-.065-.05l.095-.316-.255-.197c-.033-.025-.016-.08.025-.08l.317-.003.1-.314a.042.042 0 0 1 .081 0m0 2 .1.315.318.003c.04 0 .058.055.025.08l-.255.197.095.317c.013.04-.032.074-.065.05L4.5 6.798l-.258.192c-.033.025-.078-.008-.065-.05l.095-.316-.255-.197c-.033-.025-.016-.08.025-.08l.317-.003.1-.314a.042.042 0 0 1 .081 0m1-5 .1.315.318.003c.04 0 .058.055.025.08l-.255.197.095.317c.013.04-.032.074-.065.05L5.5 1.798l-.258.192c-.033.025-.078-.008-.065-.05l.095-.316-.255-.197c-.033-.025-.016-.08.025-.08l.317-.003.1-.314a.042.042 0 0 1 .081 0" mask="url(#d)"/><path fill="#F5F5F5" d="m5.54 2.03.1.315.318.003c.04 0 .058.055.025.08l-.255.197.095.317c.013.04-.032.074-.065.05L5.5 2.798l-.258.192c-.033.025-.078-.008-.065-.05l.095-.316-.255-.197c-.033-.025-.016-.08.025-.08l.317-.003.1-.314a.042.042 0 0 1 .081 0m0 2 .1.315.318.003c.04 0 .058.055.025.08l-.255.197.095.317c.013.04-.032.074-.065.05L5.5 4.798l-.258.192c-.033.025-.078-.008-.065-.05l.095-.316-.255-.197c-.033-.025-.016-.08.025-.08l.317-.003.1-.314a.042.042 0 0 1 .081 0" mask="url(#d)"/><path fill="#F5F5F5" d="m5.54 5.03.1.315.318.003c.04 0 .058.055.025.08l-.255.197.095.317c.013.04-.032.074-.065.05L5.5 5.798l-.258.192c-.033.025-.078-.008-.065-.05l.095-.316-.255-.197c-.033-.025-.016-.08.025-.08l.317-.003.1-.314a.042.042 0 0 1 .081 0m0 2 .1.315.318.003c.04 0 .058.055.025.08l-.255.197.095.317c.013.04-.032.074-.065.05L5.5 7.798l-.258.192c-.033.025-.078-.008-.065-.05l.095-.316-.255-.197c-.033-.025-.016-.08.025-.08l.317-.003.1-.314a.042.042 0 0 1 .081 0m1-5 .1.315.318.003c.04 0 .058.055.025.08l-.255.197.095.317c.013.04-.032.074-.065.05L6.5 2.798l-.258.192c-.033.025-.078-.008-.065-.05l.095-.316-.255-.197c-.033-.025-.016-.08.025-.08l.317-.003.1-.314a.042.042 0 0 1 .081 0" mask="url(#d)"/><path fill="#F5F5F5" d="m6.54 3.03.1.315.318.003c.04 0 .058.055.025.08l-.255.197.095.317c.013.04-.032.074-.065.05L6.5 3.798l-.258.192c-.033.025-.078-.008-.065-.05l.095-.316-.255-.197c-.033-.025-.016-.08.025-.08l.317-.003.1-.314a.042.042 0 0 1 .081 0" mask="url(#d)"/><path fill="#F5F5F5" d="m6.54 4.03.1.315.318.003c.04 0 .058.055.025.08l-.255.197.095.317c.013.04-.032.074-.065.05L6.5 4.798l-.258.192c-.033.025-.078-.008-.065-.05l.095-.316-.255-.197c-.033-.025-.016-.08.025-.08l.317-.003.1-.314a.042.042 0 0 1 .081 0m0 2 .1.315.318.003c.04 0 .058.055.025.08l-.255.197.095.317c.013.04-.032.074-.065.05L6.5 6.798l-.258.192c-.033.025-.078-.008-.065-.05l.095-.316-.255-.197c-.033-.025-.016-.08.025-.08l.317-.003.1-.314a.042.042 0 0 1 .081 0m1-5 .1.315.318.003c.04 0 .058.055.025.08l-.255.197.095.317c.013.04-.032.074-.065.05L7.5 1.798l-.258.192c-.033.025-.078-.008-.065-.05l.095-.316-.255-.197c-.033-.025-.016-.08.025-.08l.317-.003.1-.314a.042.042 0 0 1 .081 0" mask="url(#d)"/><path fill="#F5F5F5" d="m7.54 2.03.1.315.318.003c.04 0 .058.055.025.08l-.255.197.095.317c.013.04-.032.074-.065.05L7.5 2.798l-.258.192c-.033.025-.078-.008-.065-.05l.095-.316-.255-.197c-.033-.025-.016-.08.025-.08l.317-.003.1-.314a.042.042 0 0 1 .081 0m0 2 .1.315.318.003c.04 0 .058.055.025.08l-.255.197.095.317c.013.04-.032.074-.065.05L7.5 4.798l-.258.192c-.033.025-.078-.008-.065-.05l.095-.316-.255-.197c-.033-.025-.016-.08.025-.08l.317-.003.1-.314a.042.042 0 0 1 .081 0" mask="url(#d)"/><path fill="#F5F5F5" d="m7.54 5.03.1.315.318.003c.04 0 .058.055.025.08l-.255.197.095.317c.013.04-.032.074-.065.05L7.5 5.798l-.258.192c-.033.025-.078-.008-.065-.05l.095-.316-.255-.197c-.033-.025-.016-.08.025-.08l.317-.003.1-.314a.042.042 0 0 1 .081 0m0 2 .1.315.318.003c.04 0 .058.055.025.08l-.255.197.095.317c.013.04-.032.074-.065.05L7.5 7.798l-.258.192c-.033.025-.078-.008-.065-.05l.095-.316-.255-.197c-.033-.025-.016-.08.025-.08l.317-.003.1-.314a.042.042 0 0 1 .081 0m1-5 .1.315.318.003c.04 0 .058.055.025.08l-.255.197.095.317c.013.04-.032.074-.065.05L8.5 2.798l-.258.192c-.033.025-.078-.008-.065-.05l.095-.316-.255-.197c-.033-.025-.016-.08.025-.08l.317-.003.1-.314a.042.042 0 0 1 .081 0" mask="url(#d)"/><path fill="#F5F5F5" d="m8.54 3.03.1.315.318.003c.04 0 .058.055.025.08l-.255.197.095.317c.013.04-.032.074-.065.05L8.5 3.798l-.258.192c-.033.025-.078-.008-.065-.05l.095-.316-.255-.197c-.033-.025-.016-.08.025-.08l.317-.003.1-.314a.042.042 0 0 1 .081 0" mask="url(#d)"/><path fill="#F5F5F5" d="m8.54 4.03.1.315.318.003c.04 0 .058.055.025.08l-.255.197.095.317c.013.04-.032.074-.065.05L8.5 4.798l-.258.192c-.033.025-.078-.008-.065-.05l.095-.316-.255-.197c-.033-.025-.016-.08.025-.08l.317-.003.1-.314a.042.042 0 0 1 .081 0m0 2 .1.315.318.003c.04 0 .058.055.025.08l-.255.197.095.317c.013.04-.032.074-.065.05L8.5 6.798l-.258.192c-.033.025-.078-.008-.065-.05l.095-.316-.255-.197c-.033-.025-.016-.08.025-.08l.317-.003.1-.314a.042.042 0 0 1 .081 0m1-5 .1.315.318.003c.04 0 .058.055.025.08l-.255.197.095.317c.013.04-.032.074-.065.05L9.5 1.798l-.258.192c-.033.025-.078-.008-.065-.05l.095-.316-.255-.197c-.033-.025-.016-.08.025-.08l.317-.003.1-.314a.042.042 0 0 1 .081 0" mask="url(#d)"/><path fill="#F5F5F5" d="m9.54 2.03.1.315.318.003c.04 0 .058.055.025.08l-.255.197.095.317c.013.04-.032.074-.065.05L9.5 2.798l-.258.192c-.033.025-.078-.008-.065-.05l.095-.316-.255-.197c-.033-.025-.016-.08.025-.08l.317-.003.1-.314a.042.042 0 0 1 .081 0m0 2 .1.315.318.003c.04 0 .058.055.025.08l-.255.197.095.317c.013.04-.032.074-.065.05L9.5 4.798l-.258.192c-.033.025-.078-.008-.065-.05l.095-.316-.255-.197c-.033-.025-.016-.08.025-.08l.317-.003.1-.314a.042.042 0 0 1 .081 0" mask="url(#d)"/><path fill="#F5F5F5" d="m9.54 5.03.1.315.318.003c.04 0 .058.055.025.08l-.255.197.095.317c.013.04-.032.074-.065.05L9.5 5.798l-.258.192c-.033.025-.078-.008-.065-.05l.095-.316-.255-.197c-.033-.025-.016-.08.025-.08l.317-.003.1-.314a.042.042 0 0 1 .081 0m0 2 .1.315.318.003c.04 0 .058.055.025.08l-.255.197.095.317c.013.04-.032.074-.065.05L9.5 7.798l-.258.192c-.033.025-.078-.008-.065-.05l.095-.316-.255-.197c-.033-.025-.016-.08.025-.08l.317-.003.1-.314a.042.042 0 0 1 .081 0" mask="url(#d)"/></g></svg>