<svg
            class="ac-logo"
            xmlns="http://www.w3.org/2000/svg"
            xmlns:xlink="http://www.w3.org/1999/xlink"
            width="178"
            height="41"
            viewBox="0 0 178 41"
          >
            <defs>
              <path id="a" d="M0 .117h35.952V41H0z" />
            </defs>
            <g fill="none" fill-rule="evenodd">
              <path
                fill="#2A42E8"
                d="M23.8 19.044l-5.094-2.885a1.23 1.23 0 0 0-1.209 0l-5.093 2.885a.591.591 0 0 0-.302.514v5.849c0 .327.27.593.604.593h2.64a.599.599 0 0 0 .604-.593v-3.66a.6.6 0 0 1 .605-.594h3.094a.6.6 0 0 1 .605.594v3.66c0 .327.27.593.604.593h2.64a.599.599 0 0 0 .604-.593v-5.849a.591.591 0 0 0-.303-.514"
              />
              <g transform="translate(.102)">
                <mask id="b" fill="#fff">
                  <use xlink:href="#a" />
                </mask>
                <path
                  fill="#2A42E8"
                  d="M28.989 19.13v6.241c0 .43-.227.826-.596 1.04l-4.477 2.608-5.358 3.121a1.183 1.183 0 0 1-1.19 0l-5.358-3.12v-.016l-4.451-2.593a1.204 1.204 0 0 1-.596-1.04v-8.705c0-.43.227-.826.596-1.04l4.762-2.775a1.181 1.181 0 0 1 1.19 0l3.87 2.254c.368.215.822.215 1.19 0l3.87-2.254a1.182 1.182 0 0 1 1.19 0l4.762 2.774c.369.215.596.612.596 1.04v2.465zm5.363-9.974L19.576.55a3.176 3.176 0 0 0-3.2 0L1.6 9.156A3.234 3.234 0 0 0 0 11.952v17.213c0 1.153.61 2.22 1.6 2.796l14.776 8.606c.99.577 2.21.577 3.2 0l14.776-8.606a3.234 3.234 0 0 0 1.6-2.796V11.952c0-1.153-.61-2.219-1.6-2.796z"
                  mask="url(#b)"
                />
              </g>
              <text
                fill="#FFF"
                font-family="Rubik-Light, Rubik"
                font-size="28"
                font-weight="300"
              >
                <tspan x="47.102" y="30">casa</tspan>
                <tspan
                  x="105.902"
                  y="30"
                  font-family="Rubik-Medium, Rubik"
                  font-weight="600"
                >
                  Royal
                </tspan>
              </text>
            </g>
          </svg>