<svg xmlns="http://www.w3.org/2000/svg" xmlns:xlink="http://www.w3.org/1999/xlink" width="36" height="38" viewBox="0 0 36 38"><defs><path id="a" d="M0 .492h35.492v13.95H0z"/></defs><g fill="none" fill-rule="evenodd"><g transform="translate(0 .316)"><mask id="b" fill="#fff"><use xlink:href="#a"/></mask><path fill="#9B9B9B" d="M34.58 10.767 19.754 1.08a3.669 3.669 0 0 0-4.01.017L.898 10.775a1.998 1.998 0 1 0 2.2 3.338L17.76 4.55l14.646 9.57c.338.217.713.32 1.085.32a1.997 1.997 0 0 0 1.09-3.674" mask="url(#b)"/></g><path fill="#9B9B9B" d="M26.684 30.814a2.47 2.47 0 1 1 0-4.944 2.47 2.47 0 0 1 0 4.944zM9.425 21.92l.285-2.974a4.175 4.175 0 0 1 4.175-3.79h.445v.935c0 .81.645 1.457 1.455 1.457h3.926c.81 0 1.466-.646 1.466-1.457v-.934h.434a4.173 4.173 0 0 1 4.173 3.79l.287 2.974H9.425zm-.616 8.895a2.47 2.47 0 1 1 0-4.944 2.47 2.47 0 0 1 0 4.944zm22.021-7.678a1.468 1.468 0 0 0-1.439-1.217h-.815l-.31-3.223a6.667 6.667 0 0 0-6.655-6.056h-7.726a6.669 6.669 0 0 0-6.657 6.056l-.309 3.223h-.815a1.47 1.47 0 0 0-1.441 1.217L3.45 30.012c-.15.852.09 1.729.647 2.39a2.949 2.949 0 0 0 2.148 1.046v1.141a2.907 2.907 0 0 0 2.913 2.918h.92a2.923 2.923 0 0 0 2.931-2.918v-1.124h9.486v1.122a2.916 2.916 0 0 0 2.92 2.92h.92a2.917 2.917 0 0 0 2.923-2.92v-1.14a2.931 2.931 0 0 0 2.787-3.43l-1.215-6.881z"/></g></svg>