<svg xmlns="http://www.w3.org/2000/svg" xmlns:xlink="http://www.w3.org/1999/xlink" width="14" height="15" viewBox="0 0 14 15">
    <defs>
        <path id="a" d="M0 .194h13.968v5.49H0z"/>
    </defs>
    <g fill="none" fill-rule="evenodd">
        <g transform="translate(0 .124)">
            <mask id="b" fill="#fff">
                <use xlink:href="#a"/>
            </mask>
            <path fill="#000" d="M13.609 4.237L7.773.425a1.444 1.444 0 0 0-1.578.007L.354 4.24a.787.787 0 0 0 .865 1.314L6.99 1.79l5.765 3.766a.784.784 0 0 0 1.088-.233.786.786 0 0 0-.233-1.087" mask="url(#b)"/>
        </g>
        <path fill="#000" d="M10.501 12.127a.972.972 0 1 1 0-1.944.972.972 0 0 1 0 1.944zm-6.792-3.5l.112-1.171a1.643 1.643 0 0 1 1.643-1.492h.176v.368c0 .32.253.573.572.573h1.545a.573.573 0 0 0 .577-.573v-.368h.17c.856 0 1.562.641 1.643 1.492l.113 1.17H3.71zm-.242 3.5a.972.972 0 1 1 0-1.944.972.972 0 0 1 0 1.944zm8.666-3.022a.578.578 0 0 0-.566-.479h-.321l-.122-1.269a2.624 2.624 0 0 0-2.62-2.383h-3.04a2.624 2.624 0 0 0-2.62 2.383l-.12 1.27h-.322a.579.579 0 0 0-.567.478l-.477 2.706a1.153 1.153 0 0 0 1.1 1.352v.45c0 .635.51 1.148 1.146 1.148h.362a1.15 1.15 0 0 0 1.154-1.149v-.442h3.733v.441c0 .637.513 1.15 1.149 1.15h.362c.636 0 1.15-.513 1.15-1.15v-.448a1.153 1.153 0 0 0 1.097-1.35l-.478-2.708z"/>
    </g>
</svg>
